# AST/ASF file generated using VICON BodyLanguage
# -----------------------------------------------
:version 1.10
:name VICON
:units
  mass 1.0
  length 0.45
  angle deg
:documentation
   .ast/.asf automatically generated from VICON data using
   VICON BodyBuilder and BodyLanguage model FoxedUp or BRILLIANT.MOD
:root
   order TX TY TZ RX RY RZ
   axis XYZ
   position 0 0 0  
   orientation 0 0 0 
:bonedata
  begin
     id 1 
     name lhipjoint
     direction 0.645422 -0.672597 0.361999 
     length 2.39934 
     axis 0 0 0  XYZ
  end
  begin
     id 2 
     name lfemur
     direction 0.34202 -0.939693 0  
     length 6.58112  
     axis 0 0 20  XYZ
    dof rx ry rz
    limits (-160.0 20.0)
           (-70.0 70.0)
           (-60.0 70.0)
  end
  begin
     id 3 
     name ltibia
     direction 0.34202 -0.939693 0   
     length 7.02673   
     axis 0 0 20   XYZ
    dof rx
    limits (-10.0 170.0)
  end
  begin
     id 4 
     name lfoot
     direction 0.0835106 -0.229444 0.969733   
     length 2.08772   
     axis -90 7.62852e-016 20   XYZ
    dof rx rz
    limits (-45.0 90.0)
           (-70.0 20.0)
  end
  begin
     id 5 
     name ltoes
     direction 1.5358e-011 -4.21925e-011 1   
     length 1.04844   
     axis -90 7.62852e-016 20   XYZ
    dof rx
    limits (-90.0 20.0)
  end
  begin
     id 6 
     name rhipjoint
     direction -0.644959 -0.672941 0.362185   
     length 2.39812  
     axis 0 0 0  XYZ 
  end
  begin
     id 7 
     name rfemur
     direction -0.34202 -0.939693 0   
     length 6.67015   
     axis 0 0 -20   XYZ
    dof rx ry rz
    limits (-160.0 20.0)
           (-70.0 70.0)
           (-70.0 60.0)
  end
  begin
     id 8 
     name rtibia
     direction -0.34202 -0.939693 0   
     length 7.35735   
     axis 0 0 -20   XYZ
    dof rx
    limits (-10.0 170.0)
 end
 begin
     id 9 
     name rfoot
     direction -0.0670769 -0.184292 0.98058   
     length 2.25469  
     axis -90 -7.62852e-016 -20   XYZ
    dof rx rz
    limits (-45.0 90.0)
           (-20.0 70.0)
  end
  begin
     id 10 
     name rtoes
     direction -1.53575e-011 -4.21908e-011 1   
     length 1.13399   
     axis -90 -7.62852e-016 -20   XYZ
    dof rx
    limits (-90.0 20.0)
  end
  begin
     id 11 
     name lowerback
     direction -0.0188328 0.993434 -0.112847   
     length 2.27656   
     axis 0 0 0   XYZ
    dof rx ry rz
    limits (-20.0 45.0)
           (-30.0 30.0)
           (-30.0 30.0)
  end
  begin
     id 12 
     name upperback
     direction 0.00983139 0.998968 -0.04435   
     length 2.28631   
     axis 0 0 0   XYZ
    dof rx ry rz
    limits (-20.0 45.0)
           (-30.0 30.0)
           (-30.0 30.0)
  end
  begin
     id 13 
     name thorax
     direction 0.0177718 0.999807 0.00833073   
     length 2.30999   
     axis 0 0 0   XYZ
    dof rx ry rz
    limits (-20.0 45.0)
           (-30.0 30.0)
           (-30.0 30.0)
  end
  begin
     id 14 
     name lowerneck
     direction -0.0835025 0.993181 0.0813558   
     length 1.39447   
     axis 0 0 0   XYZ
    dof rx ry rz
    limits (-20.0 45.0)
           (-30.0 30.0)
           (-30.0 30.0)
  end
  begin
     id 15 
     name upperneck
     direction 0.210059 0.976535 0.0474817   
     length 1.39882   
     axis 0 0 0   XYZ
    dof rx ry rz
    limits (-20.0 45.0)
           (-30.0 30.0)
           (-30.0 30.0)
  end
  begin
     id 16
     name head
     direction 0.0780891 0.996944 -0.00207154  
     length 1.41828  
     axis 0 0 0   XYZ
    dof rx ry rz
    limits (-20.0 45.0)
           (-30.0 30.0)
           (-30.0 30.0)
  end
  begin
     id 17 
     name lclavicle
     direction 0.982414 0.166355 -0.0847829  
     length 3.57922  
     axis 0 0 0   XYZ
    dof ry rz
    limits (-20.0 10.0)
           (0.0 20.0)
  end
  begin
     id 18 
     name lhumerus
     direction 1 -4.48975e-011 5.47647e-028   
     length 4.76405   
     axis -180 -30 -90   XYZ
    dof rx ry rz
    limits (-60.0 90.0)
           (-90.0 90.0)
           (-90.0 90.0)
  end
  begin
     id 19
     name lradius
     direction 1 -4.48949e-011 -8.32142e-027   
     length 3.13759   
     axis -180 -30 -90   XYZ
    dof rx
    limits (-10.0 170.0)
  end
  begin
     id 20
     name lwrist
     direction 1 -4.48978e-011 -1.32705e-026   
     length 1.56879   
     axis 9.60836e-015 90 90   XYZ
    dof ry
    limits (-180.0 0.0)
 end
  begin
     id 21 
     name lhand
     direction 1 -4.48975e-011 -2.65409e-026   
     length 0.732262   
     axis 1.69354e-014 90 90   XYZ
    dof rx rz
    limits (-90.0 90.0)
           (-45.0 45.0)
  end
  begin
     id 22 
     name lfingers
     direction 1 -4.48923e-011 -5.30819e-026   
     length 0.590368   
     axis 3.38708e-014 90 90   XYZ
    dof rx
    limits (0.0 90.0)
  end
  begin
     id 23
     name lthumb
     direction 0.707107 -6.34914e-011 0.707107   
     length 0.847654   
     axis -90 45 2.85299e-015   XYZ
    dof rx rz
    limits (-45.0 45.0)
           (-45.0 45.0)
  end
  begin
     id 24 
     name rclavicle
     direction -0.963658 0.245183 -0.106063   
     length 3.43472  
     axis 0 0 0   XYZ 
    dof ry rz
    limits (-10.0 20.0)
           (-20.0 0.0)
  end
  begin
     id 25 
     name rhumerus
     direction -1 -4.48963e-011 -1.64784e-027  
     length 5.10161   
     axis -180 30 90   XYZ
    dof rx ry rz
    limits (-90.0 60.0)
           (-90.0 90.0)
           (-90.0 90.0)
  end
  begin
     id 26 
     name rradius
     direction -1 -4.48969e-011 -2.87943e-027   
     length 3.23267   
     axis -180 30 90   XYZ
    dof rx
    limits (-10.0 170.0)
  end
  begin
     id 27 
     name rwrist
     direction -1 -4.48982e-011 -1.32705e-026   
     length 1.61633   
     axis 9.60836e-015 -90 -90   XYZ
    dof ry
    limits (-180.0 0.0)
  end
  begin
     id 28
     name rhand
     direction -1 -4.48963e-011 -2.65409e-026   
     length 0.702   
     axis 1.69354e-014 -90 -90   XYZ
    dof rx rz
    limits (-90.0 90.0)
           (-45.0 45.0)
  end
  begin
     id 29
     name rfingers
     direction -1 -4.48934e-011 -5.30819e-026   
     length 0.565971   
     axis 3.38708e-014 -90 -90   XYZ
    dof rx
    limits (0.0 90.0)
  end
  begin
     id 30
     name rthumb
     direction -0.707107 -6.34908e-011 0.707107   
     length 0.812624   
     axis -90 -45 -2.85299e-015   XYZ
    dof rx rz
    limits (-45.0 45.0)
           (-45.0 45.0)
  end
:hierarchy
  begin
    root lhipjoint rhipjoint lowerback
    lhipjoint lfemur
    lfemur ltibia
    ltibia lfoot
    lfoot ltoes
    rhipjoint rfemur
    rfemur rtibia
    rtibia rfoot
    rfoot rtoes
    lowerback upperback
    upperback thorax
    thorax lowerneck lclavicle rclavicle
    lowerneck upperneck
    upperneck head
    lclavicle lhumerus
    lhumerus lradius
    lradius lwrist
    lwrist lhand lthumb
    lhand lfingers
    rclavicle rhumerus
    rhumerus rradius
    rradius rwrist
    rwrist rhand rthumb
    rhand rfingers
  end

#!OML:ASF E:\basketball\basketball\Project 1\Capture day 1\Session 1\Subject.ASF
:FULLY-SPECIFIED
:DEGREES
91
root 31.3783 15.1622 -2.70826 -231.709 76.2918 -231.363
lowerback 7.5244 -0.652759 -11.5278
upperback 4.16107 -1.43216 -0.318495
thorax 0.45622 -0.844659 6.23921
lowerneck 1.59942 -6.01427 -21.1943
upperneck -8.70264 -7.24894 24.8694
head -0.843576 -3.68684 11.5758
rclavicle 1.95803e-014 -7.95139e-015
rhumerus -55.2648 0.832696 -59.3289
rradius 84.4368
rwrist -12.3231
rhand -13.6822 22.427
rfingers 7.12502
rthumb 12.4355 -7.18304
lclavicle 1.95803e-014 -7.95139e-015
lhumerus -27.8605 31.0892 26.1814
lradius 100.681
lwrist 68.424
lhand 16.0693 38.0137
lfingers 7.12502
lthumb 40.8572 62.9753
rfemur -38.7322 -15.5116 21.7238
rtibia 34.4778
rfoot 6.29516 1.19877
rtoes 27.7375
lfemur 24.3026 5.02873 -8.7656
ltibia 84.2517
lfoot 1.97486 11.1955
ltoes -13.058
92
root 31.9792 15.0265 -2.7599 -230.795 77.0864 -230.076
lowerback 7.93849 -0.449088 -10.2382
upperback 4.10808 -1.14117 -0.0651014
thorax 0.0741179 -0.662879 5.77355
lowerneck 1.98765 -6.01977 -21.3509
upperneck -9.16153 -7.28538 24.6661
head -1.03569 -3.72042 11.5587
rclavicle -3.45885e-014 -3.02153e-014
rhumerus -54.0795 0.672674 -59.23
rradius 86.0232
rwrist -11.9199
rhand -14.7858 23.3516
rfingers 7.12502
rthumb 11.3714 -6.32013
lclavicle -3.45885e-014 -3.02153e-014
lhumerus -29.7059 33.0732 24.5804
lradius 102.464
lwrist 68.6543
lhand 15.4686 39.2851
lfingers 7.12502
lthumb 40.2926 64.4223
rfemur -37.9255 -15.7283 23.0695
rtibia 39.0076
rfoot -2.1105 -1.76649
rtoes 14.096
lfemur 22.1345 5.69772 -6.05597
ltibia 89.8925
lfoot 1.302 10.1952
ltoes -11.7431
93
root 32.5838 14.962 -2.77773 -228.676 78.3551 -227.807
lowerback 8.2785 -0.118659 -8.70113
upperback 4.05695 -0.641196 0.360386
thorax -0.287401 -0.381286 5.32399
lowerneck 2.79689 -6.04503 -21.577
upperneck -10.2098 -7.33742 24.6601
head -1.44508 -3.78594 11.6683
rclavicle 2.04748e-014 2.8625e-014
rhumerus -52.689 0.24378 -59.4051
rradius 87.4613
rwrist -11.3136
rhand -16.1596 24.1698
rfingers 7.12502
rthumb 10.0462 -5.57043
lclavicle 2.04748e-014 2.8625e-014
lhumerus -31.5861 35.1803 23.3788
lradius 104.168
lwrist 67.1936
lhand 17.715 38.5906
lfingers 7.12502
lthumb 42.4008 63.0449
rfemur -38.096 -13.4842 23.9538
rtibia 43.7045
rfoot -4.72867 -4.06274
rtoes 11.9651
lfemur 19.3216 6.62073 -2.44154
ltibia 95.4167
lfoot 1.23299 8.43532
ltoes -10.4826
94
root 33.1638 14.9323 -2.7829 -224.836 79.6804 -223.866
lowerback 9.14038 0.245339 -7.02148
upperback 3.75612 -0.119468 0.867547
thorax -1.17905 -0.0671087 4.86952
lowerneck 3.63083 -6.22255 -21.7335
upperneck -11.0276 -7.65187 24.6013
head -1.73854 -3.98323 11.7284
rclavicle 1.59028e-014 -6.36111e-015
rhumerus -51.5515 -0.364517 -59.9415
rradius 88.8927
rwrist -10.4287
rhand -17.4867 24.8486
rfingers 7.12502
rthumb 8.76571 -4.94934
lclavicle 1.59028e-014 -6.36111e-015
lhumerus -33.7303 37.3792 22.8643
lradius 106.184
lwrist 66.2902
lhand 18.4662 38.7414
lfingers 7.12502
lthumb 43.1037 62.9506
rfemur -38.3201 -10.6651 24.533
rtibia 48.0697
rfoot -7.96801 -5.35317
rtoes 24.5
lfemur 15.9946 7.45798 1.19095
ltibia 100.664
lfoot 1.5697 6.14436
ltoes -10.7529
95
root 33.6417 14.6575 -2.82688 -219.08 80.9734 -217.965
lowerback 9.79732 0.624047 -5.22456
upperback 3.78558 0.516058 1.39844
thorax -1.59797 0.274973 4.34086
lowerneck 3.66543 -6.70596 -21.6417
upperneck -11.5761 -8.25946 24.4996
head -1.758 -4.28452 11.6601
rclavicle 2.127e-014 -1.59028e-014
rhumerus -50.0024 -1.50775 -60.9417
rradius 90.2395
rwrist -9.56018
rhand -18.5032 25.5996
rfingers 7.12502
rthumb 7.78468 -4.23711
lclavicle 2.127e-014 -1.59028e-014
lhumerus -35.5749 39.0075 22.7886
lradius 108.891
lwrist 66.218
lhand 16.975 38.6502
lfingers 7.12502
lthumb 41.7073 63.3375
rfemur -37.2175 -8.33625 26.104
rtibia 51.239
rfoot -10.1565 -8.52395
rtoes 6.42634
lfemur 12.5155 7.96995 5.35925
ltibia 106.726
lfoot 0.865301 2.95123
ltoes -12.0103
96
root 34.1754 14.5665 -2.87082 -195.083 83.8865 -193.524
lowerback 10.0859 1.08257 -0.794792
upperback 4.33279 1.59628 2.57194
thorax -1.24305 0.846813 2.93365
lowerneck 3.37019 -7.14606 -21.3219
upperneck -12.5959 -8.63967 24.4305
head -1.91445 -4.4542 11.58
rclavicle -9.34288e-015 -2.70347e-014
rhumerus -47.7857 -2.76216 -62.3774
rradius 91.4525
rwrist -9.12084
rhand -19.2569 26.4752
rfingers 7.12502
rthumb 7.05714 -3.38714
lclavicle -9.34288e-015 -2.70347e-014
lhumerus -36.811 42.6874 24.277
lradius 111.405
lwrist 64.9963
lhand 16.5293 39.1572
lfingers 7.12502
lthumb 41.2892 63.981
rfemur -35.4448 -6.71023 30.3219
rtibia 53.101
rfoot -12.4841 -9.50616
rtoes 2.33471
lfemur 10.0046 9.18045 12.8726
ltibia 111.24
lfoot 0.029389 -2.14011
ltoes -15.1699
97
root 34.7273 14.5824 -2.91467 -164.198 84.6128 -161.959
lowerback 10.7075 1.37993 2.79508
upperback 5.07213 2.41357 3.38097
thorax -0.752059 1.32242 1.66088
lowerneck 3.47176 -7.26443 -20.7149
upperneck -14.3231 -8.49447 24.4294
head -2.47471 -4.38981 11.5688
rclavicle 1.31198e-014 1.59028e-015
rhumerus -45.1898 -3.65539 -64.2795
rradius 92.4707
rwrist -9.1304
rhand -19.765 27.6151
rfingers 7.12502
rthumb 6.56669 -2.26312
lclavicle 1.31198e-014 1.59028e-015
lhumerus -38.1971 45.9805 25.9738
lradius 113.72
lwrist 64.1498
lhand 15.6575 39.1303
lfingers 7.12502
lthumb 40.4702 64.2127
rfemur -32.457 -7.02613 33.6157
rtibia 53.8055
rfoot -14.5555 -10.1164
rtoes -3.28726
lfemur 7.28405 10.2622 18.066
ltibia 114.613
lfoot -0.380453 -6.18288
ltoes -17.1866
98
root 35.2542 14.6157 -2.93487 -164.216 84.4327 -161.905
lowerback 11.2078 1.54675 2.91064
upperback 5.53397 2.68618 3.44943
thorax -0.543488 1.47732 1.63195
lowerneck 1.88252 -7.89657 -19.6692
upperneck -14.127 -9.07434 23.8464
head -2.10122 -4.603 11.0313
rclavicle -2.76311e-014 -1.74931e-014
rhumerus -42.5069 -3.72909 -66.5979
rradius 93.3702
rwrist -9.37464
rhand -19.8793 28.6589
rfingers 7.12502
rthumb 6.45629 -1.22272
lclavicle -2.76311e-014 -1.74931e-014
lhumerus -40.8357 46.8973 26.8235
lradius 117.69
lwrist 64.2043
lhand 12.0354 38.1485
lfingers 7.12502
lthumb 37.0542 64.1989
rfemur -30.372 -8.08092 33.6143
rtibia 54.2476
rfoot -16.3909 -10.185
rtoes -2.6483
lfemur 2.52657 11.2283 17.4986
ltibia 117.555
lfoot -0.166091 -8.27334
ltoes -16.3978
99
root 35.7849 14.6464 -2.95159 -167.515 84.0945 -165.421
lowerback 11.3766 1.69827 2.53847
upperback 5.53132 2.86215 3.51789
thorax -0.661112 1.55825 1.8848
lowerneck 2.71433 -7.61215 -19.1795
upperneck -15.1441 -8.61082 23.9034
head -2.65702 -4.43486 11.0934
rclavicle -3.06128e-014 -1.43125e-014
rhumerus -40.5784 -2.90589 -68.968
rradius 94.2586
rwrist -9.59497
rhand -19.6068 29.143
rfingers 7.12502
rthumb 6.71942 -0.730355
lclavicle -3.06128e-014 -1.43125e-014
lhumerus -43.9357 45.9037 27.6876
lradius 121.112
lwrist 64.2808
lhand 9.20543 36.5748
lfingers 7.12502
lthumb 34.3723 63.2751
rfemur -28.6103 -9.10485 33.2329
rtibia 54.6141
rfoot -17.8158 -10.3577
rtoes -2.94235
lfemur -2.82192 12.2006 15.6712
ltibia 119.868
lfoot -0.543268 -9.61231
ltoes -17.5788
100
root 36.3267 14.682 -2.9727 -174.243 83.5427 -172.276
lowerback 11.4361 1.8764 1.91952
upperback 5.53603 3.03396 3.44292
thorax -0.71903 1.63316 2.13092
lowerneck 2.77333 -7.88351 -18.8436
upperneck -15.0385 -8.97132 24.0484
head -2.56186 -4.64184 11.059
rclavicle -2.84262e-014 -3.26007e-014
rhumerus -38.74 -1.66775 -71.4135
rradius 94.9259
rwrist -9.90205
rhand -19.3373 29.3439
rfingers 7.12502
rthumb 6.97958 -0.521018
lclavicle -2.84262e-014 -3.26007e-014
lhumerus -44.7668 47.3031 31.056
lradius 122.682
lwrist 62.77
lhand 8.42464 35.8273
lfingers 7.12502
lthumb 33.6307 62.6923
rfemur -26.6811 -10.4326 32.2991
rtibia 55.0415
rfoot -18.9427 -10.9222
rtoes -7.99048
lfemur -8.09229 12.5595 12.0954
ltibia 121.363
lfoot -0.777935 -9.40834
ltoes -19.7404
